# xmcd CD database file generated by OrangeCD 5.2
#
# Track frame offsets:
#	150
#	15810
#	31655
#	44674
#	60165
#	73424
#	94278
#	103037
#	117016
#	131440
#	145504
#	161704
#	175525
#
# Disc length: 2940 seconds
#
# Revision: 0
# Processed by: cddbd v1.5.1PL0 Copyright (c) Steve Scherf et al.
# Submitted via: OrangeCD 5.2
#
DISCID=9f0b7a0d
DTITLE=The Thorns - The Thorns
DYEAR=2003
DGENRE=Country
TTITLE0=Runaway Feeling
TTITLE1=I Can't Remember
TTITLE2=Blue
TTITLE3=Think It Over
TTITLE4=Thorns
TTITLE5=No Blue Sky
TTITLE6=Now I Know
TTITLE7=Dragonfly
TTITLE8=Long, Sweet Summer Night
TTITLE9=I Told You
TTITLE10=Such A Shame
TTITLE11=I Set The World On Fire
TTITLE12=Among The Living
EXTD=
EXTT0=
EXTT1=
EXTT2=
EXTT3=
EXTT4=
EXTT5=
EXTT6=
EXTT7=
EXTT8=
EXTT9=
EXTT10=
EXTT11=
EXTT12=
PLAYORDER=
